<svg xmlns="http://www.w3.org/2000/svg" width="430" height="430" style="width:100%;height:100%;transform:translate3d(0,0,0);content-visibility:visible" viewBox="0 0 430 430"><defs><clipPath id="C"><path d="M0 0h430v430H0z"/></clipPath><clipPath id="J"><path d="M0 0h430v430H0z"/></clipPath><clipPath id="m"><path d="M0 0h430v430H0z"/></clipPath><clipPath id="n"><path d="M0 0h430v430H0z"/></clipPath><clipPath id="G"><path d="M0 0h430v430H0z"/></clipPath><clipPath id="s"><path d="M0 0h430v430H0z"/></clipPath><clipPath id="t"><path d="M0 0h430v430H0z"/></clipPath><clipPath id="D"><path d="M0 0h430v430H0z"/></clipPath><clipPath id="x"><path d="M0 0h430v430H0z"/></clipPath><clipPath id="A"><path d="M0 0h430v430H0z"/></clipPath><filter id="a" width="100%" height="100%" x="0%" y="0%" filterUnits="objectBoundingBox"><feComponentTransfer in="SourceGraphic"><feFuncA tableValues="1.0 0.0" type="table"/></feComponentTransfer></filter><filter id="K" width="300%" height="300%" x="-100%" y="-100%"><feGaussianBlur result="filter_result_0"/></filter><filter id="d" width="100%" height="100%" x="0%" y="0%" filterUnits="objectBoundingBox"><feComponentTransfer in="SourceGraphic"><feFuncA tableValues="1.0 0.0" type="table"/></feComponentTransfer></filter><filter id="I" width="300%" height="300%" x="-100%" y="-100%"><feGaussianBlur result="filter_result_0" stdDeviation="52.5 52.5"/></filter><filter id="g" width="100%" height="100%" x="0%" y="0%" filterUnits="objectBoundingBox"><feComponentTransfer in="SourceGraphic"><feFuncA tableValues="1.0 0.0" type="table"/></feComponentTransfer></filter><filter id="E" width="300%" height="300%" x="-100%" y="-100%"><feGaussianBlur result="filter_result_0"/></filter><mask id="o" mask-type="alpha"><g filter="url(#a)"><path fill="#fff" d="M0 0h430v430H0z" opacity="0"/><use xmlns:ns1="http://www.w3.org/1999/xlink" ns1:href="#b"/></g></mask><mask id="L" mask-type="alpha"><use xmlns:ns2="http://www.w3.org/1999/xlink" ns2:href="#c"/></mask><mask id="u" mask-type="alpha"><g filter="url(#d)"><path fill="#fff" d="M0 0h430v430H0z" opacity="0"/><use xmlns:ns3="http://www.w3.org/1999/xlink" ns3:href="#e"/></g></mask><mask id="H" mask-type="alpha"><use xmlns:ns4="http://www.w3.org/1999/xlink" ns4:href="#f"/></mask><mask id="B" mask-type="alpha"><g filter="url(#g)"><path fill="#fff" d="M0 0h430v430H0z" opacity="0"/><use xmlns:ns5="http://www.w3.org/1999/xlink" ns5:href="#h"/></g></mask><mask id="F" mask-type="alpha"><use xmlns:ns6="http://www.w3.org/1999/xlink" ns6:href="#i"/></mask><path id="b" style="display:none"/><path id="e" fill="red" d="M0-70c38.633 0 70 31.367 70 70S38.633 70 0 70-70 38.633-70 0s31.367-70 70-70" style="display:block" transform="translate(340 300)"/><path id="h" style="display:none"/><g id="c" fill-opacity="0" clip-path="url(#m)" style="display:none"><g stroke-linejoin="round" clip-path="url(#n)" mask="url(#o)" style="display:none"><path class="primary" style="display:none"/><g stroke-linecap="round" style="display:none"><path class="primary"/><path class="primary"/></g><g stroke-linecap="round" style="display:none"><path class="primary"/><path class="primary"/></g></g><path class="secondary" style="display:none"/><path stroke-linecap="round" stroke-linejoin="round" class="secondary" style="display:none"/></g><g id="f" fill-opacity="0" stroke-width="12" clip-path="url(#s)" style="display:block"><g stroke="#121331" stroke-linejoin="round" clip-path="url(#t)" mask="url(#u)" style="display:block"><path d="M-155-130c-16.569 0-30 13.431-30 30v200c0 16.569 13.431 30 30 30h310c16.569 0 30-13.431 30-30v-200c0-16.569-13.431-30-30-30z" class="primary" style="display:block" transform="translate(215 210)"/><path stroke-linecap="round" d="M320.556 180c-8.591 0-15.556 6.965-15.556 15.556v38.888c0 8.591 6.965 15.556 15.556 15.556H340c8.591 0 15.556-6.965 15.556-15.556v-38.888c0-8.591-6.965-15.556-15.556-15.556zm-65.806 70v-70m-28.194 0h56.388M149 180v54.444c0 8.591 6.965 15.556 15.556 15.556H184c8.591 0 15.556-6.965 15.556-15.556V180M73.01 230h43.975m-51.037 20.188L89.774 180h10.435l23.835 70" class="primary" style="display:block"/></g><path stroke="#08A88A" d="M0-70c38.633 0 70 31.367 70 70S38.633 70 0 70-70 38.633-70 0s31.367-70 70-70z" class="secondary" style="display:block" transform="translate(340 300)"/><path stroke="#08A88A" stroke-linecap="round" stroke-linejoin="round" d="M4.998 30h25V5M-4.998-30h-25m0 25v-25m59.931 59.932L-29.998-30" class="secondary" style="display:block" transform="translate(338.998 301)"/></g><g id="i" fill-opacity="0" clip-path="url(#x)" style="display:none"><g stroke-linejoin="round" clip-path="url(#A)" mask="url(#B)" style="display:none"><path class="primary" style="display:none"/><g stroke-linecap="round" style="display:none"><path class="primary"/><path class="primary"/></g><g stroke-linecap="round" style="display:none"><path class="primary"/><path class="primary"/></g></g><path class="secondary" style="display:none"/><path stroke-linecap="round" stroke-linejoin="round" class="secondary" style="display:none"/></g></defs><g clip-path="url(#C)"><g clip-path="url(#D)" filter="url(#E)" mask="url(#F)" style="display:none"><g class="design"><path class="primary"/></g><g class="design"><path class="secondary"/></g></g><g clip-path="url(#G)" mask="url(#H)" style="display:block"><g filter="url(#I)" transform="rotate(-94.041 238.223 -16.975)scale(2.4)"><g class="design"><path fill="#4BE1EC" d="M0-250c137.975 0 250 112.025 250 250S137.975 250 0 250-250 137.975-250 0-137.975-250 0-250" class="primary"/></g><g class="design"><path fill="#CB5EEE" d="M113.242-295.384c97.478 0 176.5 79.022 176.5 176.5s-79.022 176.5-176.5 176.5c-43.948 0-74.396-34.057-105.29-60.631-37.631-32.369-71.21-62.338-71.21-115.869 0-97.478 79.022-176.5 176.5-176.5" class="secondary"/></g></g></g><g clip-path="url(#J)" filter="url(#K)" mask="url(#L)" style="display:none"><g class="design"><path class="primary"/></g><g class="design"><path class="secondary"/></g></g></g></svg>