<svg fill="none" height="300" viewBox="0 0 300 300" width="300" xmlns="http://www.w3.org/2000/svg" xmlns:xlink="http://www.w3.org/1999/xlink"><linearGradient id="a"><stop offset="0" stop-color="#8763d2"/><stop offset="1" stop-color="#4d3285"/></linearGradient><linearGradient id="b" gradientUnits="userSpaceOnUse" x1="272.623" x2="33.8733" xlink:href="#a" y1="217.5" y2="77.5001"/><linearGradient id="c" gradientUnits="userSpaceOnUse" x1="36.374" x2="263.874" xlink:href="#a" y1="215" y2="88.7503"/><linearGradient id="d" gradientUnits="userSpaceOnUse" x1="151.373" x2="151.373" xlink:href="#a" y1="11.2497" y2="290"/><path d="m40.4486 77.9903-7.6495 13.2494 227.3319 131.2503 7.649-13.25z" fill="url(#b)"/><path d="m264.859 92.6732-7.65-13.2494-227.3317 131.2502 7.6496 13.249z" fill="url(#c)"/><path d="m142.635 281.235h15.3v-262.4996h-15.3z" fill="url(#d)"/><path d="m161.199 0h-21.827c-4.328 0-7.837 3.5085-7.837 7.83646v21.82704c0 4.328 3.509 7.8365 7.837 7.8365h21.827c4.328 0 7.836-3.5085 7.836-7.8365v-21.82704c0-4.32796-3.508-7.83646-7.836-7.83646z" fill="#4d3285"/><path d="m161.199 262.5h-21.827c-4.328 0-7.837 3.509-7.837 7.836v21.828c0 4.328 3.509 7.836 7.837 7.836h21.827c4.328 0 7.836-3.508 7.836-7.836v-21.828c0-4.327-3.508-7.836-7.836-7.836z" fill="#8763d2"/><path d="m14.9351 215.55 10.9135 18.903c2.164 3.748 6.9567 5.033 10.7048 2.869l18.9028-10.914c3.7481-2.164 5.0323-6.957 2.8683-10.705l-10.9134-18.903c-2.164-3.748-6.9568-5.032-10.7049-2.868l-18.9028 10.914c-3.7481 2.164-5.0323 6.956-2.8683 10.704z" fill="#4d3285"/><path d="m242.263 84.3022 10.914 18.9028c2.164 3.748 6.956 5.032 10.704 2.868l18.903-10.9133c3.748-2.164 5.032-6.9566 2.868-10.7048l-10.913-18.9027c-2.164-3.7481-6.957-5.0324-10.705-2.8684l-18.903 10.9135c-3.748 2.164-5.032 6.9568-2.868 10.7049z" fill="#8763d2"/><path d="m274.722 234.448 10.914-18.903c2.163-3.748.879-8.541-2.869-10.705l-18.903-10.913c-3.748-2.164-8.54-.88-10.704 2.868l-10.914 18.903c-2.164 3.748-.88 8.541 2.868 10.705l18.903 10.913c3.748 2.164 8.541.88 10.705-2.868z" fill="#4d3285"/><path d="m47.3943 103.2 10.9135-18.9032c2.164-3.7481.8798-8.5408-2.8683-10.7048l-18.9028-10.9135c-3.7481-2.164-8.5408-.8798-10.7048 2.8684l-10.9135 18.9027c-2.164 3.7481-.8798 8.5409 2.8683 10.7049l18.9028 10.9135c3.7481 2.164 8.5409.88 10.7048-2.868z" fill="#8763d2"/></svg>