<svg width="143" height="140" viewBox="0 0 143 140" fill="none" xmlns="http://www.w3.org/2000/svg">
<path d="M56.0615 111.903L57.99 111.906L58.1889 124.746L56.1895 124.813L56.0615 111.903Z" fill="white"/>
<path d="M98.811 112.612C99.5084 112.611 106.665 112.612 106.802 112.741L106.781 114.014L103.87 114.018L103.913 122.845L103.906 125.692L101.782 125.685L101.78 114.02L98.8259 113.996L98.811 112.612Z" fill="white"/>
<path d="M88.2265 111.915L94.1147 112.185L94.1083 114.149L90.0047 114.044L89.9925 116.54C89.9911 116.918 89.9371 117.372 90.0445 117.73L93.4182 117.902L93.4085 119.858L90.0079 119.694L90.0053 121.801L90.0161 123.24L94.1729 123.418L94.1775 125.387L88.1934 125.105L88.2265 111.915Z" fill="white"/>
<path d="M65.1871 111.698L68.1224 111.708C68.547 111.712 69.0963 111.651 69.4434 111.927C70.554 112.808 70.619 114.923 70.7683 116.213L68.5706 116.227L68.5078 113.775L65.8326 113.714L65.8849 122.753C66.6454 122.791 67.5917 122.838 68.3321 122.672L68.431 122.345L68.5486 120.445L70.8098 120.436C70.7583 121.308 70.6629 122.568 70.264 123.345C70.0305 123.799 69.6275 124.192 69.2805 124.564L66.289 124.598C65.9796 124.597 65.5051 124.654 65.2244 124.557C65.022 124.487 64.7669 124.271 64.6124 124.127C64.4281 123.955 64.0701 123.543 63.9792 123.312C63.8984 123.108 63.9274 122.734 63.9278 122.517L63.9354 120.527L63.8872 112.968C64.2843 112.493 64.7186 112.101 65.1871 111.698Z" fill="white"/>
<path d="M76.1677 111.626L77.9677 111.644L77.9821 117.685L81.3342 111.734C81.996 111.627 82.8375 111.761 83.5165 111.792L79.9621 117.535L82.3925 122.65L83.5275 124.94L81.3135 124.9C81.0115 124.525 80.8568 123.864 80.6523 123.417L78.6495 119.066L78.5805 119.098C78.445 119.301 78.0205 119.791 77.9775 119.999C77.8971 120.389 77.9775 120.991 77.9773 121.4L77.9769 124.897L76.1611 124.886L76.1677 111.626Z" fill="white"/>
<path d="M33.1198 112.941L35.5764 112.859C36.302 112.862 36.8105 113.015 37.3204 113.55C38.1903 114.463 37.9918 116.022 37.99 117.191L35.7857 117.303L35.7036 115.026C35.2174 114.853 33.912 114.868 33.4283 115.082C33.2362 115.167 33.1384 115.325 33.0527 115.506L33.2062 121.988C33.2184 122.587 33.1214 123.841 33.4524 124.325C33.7127 124.485 33.8878 124.497 34.189 124.503C34.8234 124.515 35.3655 124.555 35.851 124.092C36.0687 123.49 35.906 122.52 35.8776 121.87C35.8587 121.645 35.8519 121.525 35.951 121.32L38.1401 121.189C38.117 122.398 38.4416 123.886 37.8887 125.004C37.6062 125.575 37.0858 125.986 36.4895 126.191C35.5552 126.513 33.1704 126.746 32.3195 126.257C31.6757 125.887 31.2675 125.273 31.1152 124.557C30.8518 123.318 31.0153 121.834 30.9833 120.552C30.9399 118.814 30.7237 116.945 30.8746 115.218C30.9143 114.763 31.0265 114.358 31.2967 113.985C31.774 113.325 32.3439 113.078 33.1198 112.941Z" fill="white"/>
<path d="M47.2716 112.243L48.5619 112.141C48.9125 112.465 49.4766 112.86 49.747 113.235C49.8977 113.444 49.9067 114.121 49.9309 114.392L50.2348 117.809L49.0129 119.125L51.0945 125.058L48.9451 125.215L47.5009 120.646C47.1335 120.315 46.0699 120.486 45.5461 120.498L45.6064 125.489L43.4129 125.558L42.9985 112.571L47.2716 112.243Z" fill="white"/>
<path d="M46.5669 114.456L47.9441 114.402C47.9756 115.558 48.5149 117.022 47.8441 118.038C47.6619 118.314 47.2683 118.27 46.9718 118.307L45.5576 118.413L45.3428 114.501L46.5669 114.456Z" fill="#121F5E"/>
<path d="M93.5075 48.9449L95.116 46.684C104.359 53.0763 110.459 63.1005 112.487 74.0898C113.953 82.0372 112.955 90.0467 110.226 97.601C109.713 99.023 109.117 100.39 108.448 101.746C108.17 102.31 107.911 102.928 107.571 103.457C106.764 102.751 106.087 101.902 105.382 101.097C103.994 99.5119 102.636 97.8768 101.099 96.4325L101.105 94.9155L100.724 93.827C100.106 92.4967 98.892 91.5291 97.5202 91.0632C96.1946 90.613 94.5068 90.4949 93.2453 91.1357L93.126 91.1975C92.2015 90.0201 91.5089 88.5074 90.8623 87.1594C93.6203 86.2344 96.2833 84.9939 98.8727 83.672C100.732 82.7228 102.606 81.7358 104.37 80.618L109.91 76.9063C109.501 74.0951 108.92 71.1933 107.999 68.5024C106.406 63.8437 103.724 59.2392 100.495 55.5199C98.3837 53.0891 96.0003 50.9716 93.5075 48.9449Z" fill="#121F5E"/>
<path d="M109.91 76.9066C110.239 80.7588 110.264 84.5624 109.656 88.3924C109.247 90.9651 108.543 93.4311 107.789 95.919C106.262 95.6038 104.72 95.4197 103.176 95.2071C102.506 95.1147 101.772 94.9304 101.105 94.9158L100.724 93.8273C100.106 92.4971 98.892 91.5294 97.5202 91.0635C96.1946 90.6133 94.5068 90.4952 93.2453 91.136L93.126 91.1978C92.2015 90.0205 91.5089 88.5078 90.8623 87.1597C93.6203 86.2347 96.2833 84.9942 98.8727 83.6724C100.732 82.7231 102.606 81.7361 104.37 80.6183L109.91 76.9066Z" fill="#EC7A3B"/>
<path d="M90.8624 87.1594C89.5256 84.627 88.7984 81.6729 87.7686 78.9949L89.1446 77.2427C91.9716 73.3376 91.6967 67.7188 89.0685 63.7789C88.6659 63.1753 88.2228 62.611 87.7212 62.0865C87.4352 61.7873 86.7804 61.2808 86.6025 60.9518C86.3491 60.483 86.2829 59.4125 86.1726 58.8622L84.5283 50.0598C85.714 50.874 87.6203 51.8776 89.0703 51.9322C90.8343 51.9987 92.3234 50.0591 93.5078 48.9449C96.0005 50.9715 98.3839 53.0891 100.495 55.5199C103.724 59.2391 106.406 63.8437 108 68.5024C108.92 71.1932 109.501 74.0951 109.91 76.9063L104.37 80.6179C102.606 81.7357 100.732 82.7227 98.8728 83.672C96.2834 84.9938 93.6204 86.2342 90.8624 87.1594Z" fill="#FBCA57"/>
<path d="M69.6174 127.74L83.5236 128.036L97.3162 128.939C105.107 129.718 112.787 131.024 120.408 132.817C124.765 133.841 129.123 134.976 133.372 136.387L139.916 138.756C140.823 139.136 141.784 139.493 142.627 140L135.469 138.578L120.742 136.272C105.141 134.196 89.4456 133.586 73.7235 133.433C54.1494 133.373 34.4796 134.524 15.1016 137.334L4.32164 139.117L0.373535 139.921C1.79254 139.09 3.50291 138.517 5.04186 137.951L10.7538 135.935C21.3356 132.539 32.4478 130.267 43.4968 129.096C52.1863 128.175 60.8866 127.874 69.6174 127.74Z" fill="white"/>
<path d="M47.3697 102.491L46.5384 105.712L47.9068 105.605L50.2275 95.6806C50.8835 92.2044 51.2219 88.8022 52.2359 85.3866C52.4679 84.6047 52.6726 83.7673 52.9973 83.018C53.2537 82.4263 53.7308 81.7273 54.3797 81.5216C55.2154 81.2568 56.3799 81.9912 57.1045 82.3606C59.4164 78.5582 61.8468 74.6111 65.3178 71.7407C64.2522 70.7703 63.2608 69.6819 62.2805 68.6253C58.6219 64.682 55.4207 60.2484 52.7406 55.5867L49.5939 49.9319C49.3486 49.4894 49.1839 48.8648 48.8759 48.481C48.7532 48.3281 48.62 48.2445 48.4539 48.1482C46.7445 47.1581 45.5268 45.4366 44.7769 43.6498C43.9192 41.6058 43.8882 39.188 44.7397 37.1364C45.7543 34.6922 47.5229 33.1709 49.9149 32.1622C49.6544 31.604 49.0772 31.0191 48.7338 30.476C47.3132 28.2281 46.4047 26.1891 45.9734 23.5484C45.5283 23.4765 44.8223 23.7307 44.3801 23.8411L40.5117 24.8447C41.0884 22.4405 42.3293 21.2851 44.3201 19.9469C44.2406 18.6641 44.284 17.4158 44.5178 16.1509C45.0161 13.4554 46.5324 11.0698 48.8163 9.53269C51.4008 7.79331 54.9742 7.31578 57.9868 7.92502C60.4906 8.43135 62.7401 10.105 64.1101 12.2455C65.7663 14.8331 66.4829 18.1901 66.1663 21.233C66.0715 22.143 65.8135 23.0899 65.6136 23.9876C66.0524 24.3306 66.4264 24.6794 66.802 25.0895L69.7319 23.4896C72.1695 22.4097 75.0966 21.7253 77.6673 22.7195C81.3551 24.1458 83.7947 28.305 85.2879 31.7446C85.6627 31.5519 86.0932 31.3554 86.4178 31.086C86.9259 30.6641 87.3815 29.9649 87.7952 29.4414C87.6113 28.9473 87.4778 28.5069 87.526 27.9724C87.6349 26.7613 88.8784 25.5096 89.8053 24.7965C90.4621 24.2912 91.0197 24.0711 91.8417 24.1934C92.0428 24.2232 93.2501 22.4349 94.8107 22.1728C95.5161 22.0543 95.9325 22.1278 96.5027 22.5578L96.6093 22.6393C97.9813 21.2335 99.131 19.3716 100.33 17.8007L109.358 5.99195L112.307 2.17034C112.882 1.43538 113.425 0.673403 114.074 0C115.265 0.554892 116.221 1.40499 117.004 2.44958C118.47 4.40465 119.152 6.90581 118.79 9.33901L118.764 9.51053C118.647 10.3377 118.384 11.5268 117.921 12.2363C117.621 12.6967 117.183 13.11 116.825 13.53L114.751 16.0148L105.292 27.2401L103.512 29.2563C103.343 29.4438 102.924 29.8137 102.828 30.03C102.772 30.1555 102.839 30.6521 102.844 30.803C102.864 31.3596 102.874 31.8989 102.761 32.4472C102.491 33.7664 101.768 34.6066 100.686 35.3266C100.794 35.5982 100.899 35.8742 100.954 36.1625C101.295 37.9517 100.472 40.2765 99.4759 41.7527C98.5302 43.1547 96.9507 44.8487 95.1981 45.1489L95.0672 45.1683C94.6266 45.236 94.242 45.2369 93.8011 45.1985L93.6578 45.1851L92.3454 47.3484C91.7759 48.1028 90.0481 49.863 89.0621 49.9553C88.5298 50.0053 87.8724 49.689 87.3866 49.485C85.46 48.6752 83.8259 47.6202 82.1844 46.34L82.6898 49.8841L84.1503 58.3562C84.3528 59.5133 84.4148 60.9545 84.799 62.0385C84.8691 62.2364 85.2329 62.4499 85.402 62.5878C87.4096 64.2257 88.9407 66.8685 89.1844 69.4618C89.4229 71.998 88.8754 74.2383 87.4902 76.3787C86.9767 77.172 86.3289 77.8994 85.7272 78.6275L87.0037 82.7525C88.3759 86.6101 90.2796 90.4129 92.5113 93.8367L93.038 93.2868C93.7276 92.6286 94.9545 92.6378 95.8538 92.6656C96.9541 92.6994 97.8118 93.1141 98.5616 93.9221C99.0355 94.4328 99.3627 94.9871 99.3283 95.7009L99.2592 97.221C99.9725 98.2616 101.005 99.1946 101.862 100.126L105.24 104.022L106.326 105.382C106.482 105.596 106.679 105.98 106.923 106.081C107.379 106.271 108.219 106.272 108.742 106.358L114.267 107.327C120.464 108.518 126.643 110.034 132.645 111.986C134.602 112.622 136.654 113.258 138.485 114.208L122.891 111.135L98.7465 107.948C92.3897 107.356 85.9533 107.361 79.573 107.262L52.1315 107.691L41.278 108.452C28.3284 109.43 15.4241 110.973 2.80957 114.153C3.78503 113.399 5.36906 113.038 6.53979 112.635C16.0369 109.364 26.0963 107.632 36.043 106.428C35.1775 104.918 34.245 103.459 33.4732 101.895C29.6882 94.2246 27.9007 85.5076 28.9045 76.9716C29.9885 67.7551 33.9314 59.2026 40.5422 52.6436C42.0795 51.1185 43.7899 49.7717 45.4859 48.4311C46.2259 48.9465 47.0188 49.4323 47.5967 50.1341C50.4274 55.1378 53.1185 60.1521 56.5913 64.7582C57.5829 66.0734 58.6043 67.3845 59.7113 68.6048L61.6857 70.694C61.9925 71.0164 62.3897 71.354 62.6066 71.738C61.0689 73.35 59.6421 74.9841 58.3751 76.8216L57.0622 78.8353C56.8304 79.2053 56.6101 79.6462 56.3155 79.9645C55.1767 79.7711 53.9662 79.5781 52.9406 80.2697L52.6606 80.479C51.4722 81.7021 51.0611 83.0533 50.5965 84.6464L49.5128 89.1568L48.644 95.4995L48.8943 95.7607C48.7548 96.8195 48.4346 97.9129 48.1555 98.9443L47.5894 101.527C47.53 101.791 47.487 102.259 47.3697 102.491Z" fill="#121F5E"/>
<path d="M91.4953 40.4924C91.8459 40.528 92.0004 40.4761 92.2443 40.7423C92.2441 41.1311 92.2653 41.3755 92.0214 41.6918L91.5189 41.6052C91.2361 41.2802 91.5675 41.2353 91.5721 40.8922C91.5738 40.7565 91.5209 40.6257 91.4953 40.4924Z" fill="#FEFEFE"/>
<path d="M95.3602 31.3497C95.9252 31.0871 96.4008 30.9612 97.026 30.898L97.1597 31.2478L97.066 31.4257C96.281 31.5029 95.8467 31.6196 95.1777 32.0458L95.0518 31.6476L95.3602 31.3497Z" fill="#FEFEFE"/>
<path d="M98.4327 30.0549L98.9148 30.0369C99.243 30.0611 99.316 30.1556 99.5235 30.3985C99.5453 30.6987 99.5971 30.878 99.4645 31.1524L99.0911 31.2294C98.8953 31.2124 98.5609 31.2176 98.3929 31.1147C98.1682 30.9771 97.8676 30.5454 97.7969 30.2986L98.4327 30.0549Z" fill="#FEFEFE"/>
<path d="M89.955 32.4265L89.7667 32.4703L88.3428 30.956C88.569 30.7069 88.7577 30.5008 89.053 30.3349C89.5231 30.8432 90.3658 31.4964 90.619 32.1259L89.955 32.4265Z" fill="#FEFEFE"/>
<path d="M96.4043 33.1683L97.9724 33.3362C98.3096 33.6752 98.6044 34.0024 98.6597 34.4961L98.365 34.7555L98.0511 34.6364C97.5542 34.4461 97.0391 34.2994 96.5234 34.1695C96.1998 34.0879 95.772 34.0444 95.5166 33.8203L95.5648 33.5966C95.8002 33.2924 96.0417 33.258 96.4043 33.1683Z" fill="#FEFEFE"/>
<path d="M95.7485 27.5302C96.2037 27.174 97.3804 27.1794 97.9649 27.2669C98.5016 27.3473 98.7696 27.859 99.0413 28.2732L99.107 28.3741L97.9175 28.512L96.9345 28.6517L95.7485 27.5302Z" fill="#FEFEFE"/>
<path d="M90.1616 38.5936L90.2945 38.5946L90.3768 38.6936C90.1518 39.4225 90.0135 40.8105 89.3069 41.1791C88.9261 41.3776 88.294 41.069 87.8949 40.9556C87.7059 40.8869 87.6002 40.8449 87.4663 40.6924C87.9216 39.8827 89.3724 39.0771 90.1616 38.5936Z" fill="#FEFEFE"/>
<path d="M63.8225 25.3015L63.8513 25.3515C63.7951 25.8226 63.5765 26.3103 63.404 26.7507C62.9882 27.8115 62.2808 29.4893 61.4263 30.2527C60.9288 30.697 60.248 30.9533 59.6436 31.2193L63.8225 25.3015Z" fill="#FEFEFE"/>
<path d="M93.4106 24.938C94.0409 24.4127 94.7187 23.8776 95.4707 23.5408C96.0443 23.9922 96.4846 24.4054 96.9012 25.0124L95.7797 25.6574C95.3517 25.8143 94.9188 26.0836 94.5088 26.2901L93.4106 24.938Z" fill="#FEFEFE"/>
<path d="M93.0747 40.9923L93.232 40.9417C93.7555 40.8356 95.1407 41.2381 95.5399 41.5661C95.673 42.1934 95.0416 43.2564 94.7051 43.7907C94.4912 43.8529 94.3687 43.8352 94.1522 43.7907C94.1634 43.4355 94.3963 43.2352 94.3341 42.8912L93.2677 42.5562L92.9191 42.4384C92.6279 42.2955 92.438 42.0413 92.3574 41.7419C92.4293 41.4294 92.8291 41.189 93.0747 40.9923Z" fill="#FEFEFE"/>
<path d="M56.7578 18.8031L56.9649 18.7875L56.5895 18.9175C54.7969 19.6492 52.7762 20.0552 50.9111 20.6083C48.4711 21.3317 46.0391 22.2381 43.547 22.762C43.3791 22.8068 43.3873 22.8432 43.2266 22.7528C43.9755 22.0033 45.5618 21.6093 46.5674 21.3073C49.8923 20.3083 53.3619 19.5283 56.7578 18.8031Z" fill="#FEFEFE"/>
<path d="M85.9729 41.8919L86.1212 41.9077C86.1396 42.4952 85.422 43.5344 85.1883 44.1488C84.9159 44.8658 84.7652 45.6064 84.6339 46.3595C84.3412 46.3204 83.7044 45.7257 83.4369 45.5296L82.5479 44.917C83.6279 43.8274 84.6713 42.7242 85.9729 41.8919Z" fill="#AC2242"/>
<path d="M60.2471 41.1668C60.6128 40.7488 60.9319 40.4838 61.4072 40.1957L67.683 41.5663L67.7556 41.7167L67.4311 42.1544C66.6208 42.1504 65.8047 42.0047 65.0016 41.8992L60.2471 41.1668Z" fill="#FEFEFE"/>
<path d="M54.5908 83.8528C56.8137 84.8687 58.8082 86.0693 60.8796 87.3556C61.4649 87.719 62.1373 88.0372 62.6534 88.4889L62.4043 88.4647L56.8993 86.0451C56.0688 85.6836 55.2069 85.1982 54.3326 84.9794L54.2417 84.9584C54.318 84.5826 54.467 84.2158 54.5908 83.8528Z" fill="#FEFEFE"/>
<path d="M53.7441 87.0195L62.636 91.6551L62.4333 91.663L53.3955 87.945L53.7441 87.0195Z" fill="#FEFEFE"/>
<path d="M96.686 94.7611L96.8711 94.7236C97.1731 94.8545 97.3169 94.9796 97.5289 95.2295C97.2031 98.2971 95.5183 101.408 93.5394 103.712L93.2739 104.017L93.2046 104.006C94.9169 101.241 96.2379 97.9929 96.686 94.7611Z" fill="#FEFEFE"/>
<path d="M94.8192 94.5611L95.0991 94.5569C94.7265 95.5751 94.4574 96.628 94.0479 97.6334C92.8785 100.504 90.7829 102.787 88.1233 104.355L87.915 104.368C88.3408 103.929 88.8597 103.581 89.3206 103.178C90.0128 102.573 90.6723 101.893 91.2301 101.161C92.2585 99.8109 92.9337 98.3509 93.5619 96.7847C93.7934 96.2072 94.0119 95.3917 94.3551 94.8816C94.466 94.7169 94.6479 94.6447 94.8192 94.5611Z" fill="#FEFEFE"/>
<path d="M93.6028 34.3389C94.8302 34.4231 96.0949 34.4581 97.2698 34.8638C97.6886 35.0085 98.0242 35.1285 98.2257 35.5467C98.1851 36.0611 98.0796 36.4725 97.7155 36.8525C96.2188 36.2075 94.4674 36.011 92.8789 35.6958C93.0596 35.208 93.3335 34.7808 93.6028 34.3389Z" fill="#FEFEFE"/>
<path d="M89.0537 30.3351L89.0707 30.1201L89.3955 30.3989C89.5898 30.2444 89.7905 30.2906 90.0332 30.2824L89.4219 29.6489L89.5093 29.4714C90.5039 30.4755 91.2555 31.4627 92.0322 32.64C92.2777 32.3674 92.7182 32.2163 93.051 32.0527L94.8694 31.0845L95.3603 31.35L95.0519 31.6478L95.1778 32.0459C94.9458 32.3622 94.7027 32.4051 94.3671 32.5468L94.2205 32.6216C94.0846 32.6895 94.0111 32.7153 93.8674 32.7433C93.4932 32.8161 93.1176 32.992 92.768 33.1465L92.2321 33.4679L91.7116 33.8191L91.656 34.256C91.5941 34.3934 91.6366 34.3238 91.5175 34.4573C91.0344 33.9924 90.4781 33.4223 90.2171 32.7999C90.1429 32.6288 90.081 32.56 89.9559 32.4267L90.6199 32.1261C90.3666 31.4967 89.5239 30.8434 89.0537 30.3351Z" fill="white"/>
<path d="M90.2168 32.7997L90.7195 32.4423C91.1654 32.7292 91.4654 33.7604 91.6558 34.2559C91.5938 34.3932 91.6364 34.3236 91.5172 34.4572C91.0341 33.9922 90.4778 33.4221 90.2168 32.7997Z" fill="#FEFEFE"/>
<path d="M96.1699 41.0396C94.9552 40.7771 93.6612 40.0559 92.4007 40.1407C91.898 40.1745 91.4626 40.1845 91.0293 39.8931C90.9062 39.5167 91.13 38.9282 91.2196 38.5446C92.946 38.4173 95.0356 38.7239 96.6617 39.3499C96.6514 40.0394 96.5889 40.4803 96.1699 41.0396Z" fill="#FEFEFE"/>
<path d="M91.6599 36.3721C93.1441 36.3231 94.3784 36.5136 95.8167 36.839C96.2898 36.9459 96.8883 37.0203 97.2659 37.3467C97.4891 37.5398 97.4882 37.6189 97.5335 37.8942C97.4199 38.2376 97.31 38.4265 97.0648 38.6937C96.9518 38.7189 96.9104 38.7343 96.8011 38.7393C96.4999 38.7527 96.1611 38.6246 95.8667 38.5548L94.0627 38.1538C93.3203 38.0039 92.568 37.9313 91.8178 37.8316C91.6111 37.804 91.3353 37.8194 91.1792 37.6795C91.2902 37.1982 91.4417 36.8136 91.6599 36.3721Z" fill="#FEFEFE"/>
<path d="M99.8569 101.13L103.566 105.649L101.987 105.523L98.1484 105.185C98.9942 103.879 99.4245 102.607 99.8569 101.13Z" fill="#AC2242"/>
<path d="M97.052 39.4269L97.77 38.6384C97.8585 38.5365 97.9111 38.4467 97.9447 38.3142C98.0392 37.9414 97.9817 37.5349 98.0822 37.1549C98.2062 36.6855 98.5756 36.0055 98.5204 35.533C98.4976 35.3365 98.3963 35.1462 98.3029 34.9752C98.4666 35.0473 98.5728 35.1217 98.7147 35.228L99.0593 35.1958C99.499 35.657 99.7533 36.6504 99.7459 37.2696C99.7245 39.035 98.5994 41.131 97.3157 42.3211C96.8022 42.7972 96.2681 43.1756 95.665 43.5284C95.8199 43.1564 96.004 42.772 96.108 42.383C96.2195 41.9663 96.2265 41.6309 96.5098 41.2761L96.5411 41.2587C97.1136 40.6452 97.122 40.2041 97.052 39.4269Z" fill="#FEFEFE"/>
<path d="M54.9563 9.4013C55.9201 9.28458 56.8939 9.37792 57.8446 9.54683C55.0178 9.8187 51.6148 10.1493 49.3669 12.0928C47.5835 13.6347 47.5681 15.7332 47.4038 17.9078C47.405 18.2426 47.4226 18.5732 47.3445 18.9012L45.7798 19.3588C45.8352 17.1838 46.3005 14.5022 47.702 12.7626C49.65 10.3448 51.9836 9.71431 54.9563 9.4013Z" fill="#FEFEFE"/>
<path d="M96.0775 25.9718C96.5316 25.7847 96.9668 25.616 97.4465 25.501C97.7118 25.241 97.8557 24.9955 98.265 25.0335C98.966 25.0985 99.8013 26.0479 100.166 26.5856C101.245 28.1807 101.834 30.5149 101.409 32.4168C101.257 33.099 100.981 33.607 100.514 34.1233L100.351 34.0961C100.087 33.4708 100.083 32.939 100.266 32.2971C100.568 31.2426 100.56 29.9021 99.9932 28.9401C99.7078 28.4304 98.9956 27.1454 98.4434 26.9608C97.6156 26.6844 96.248 26.7694 95.4658 27.1439C95.1682 27.0727 95.1002 26.9566 94.8882 26.7428L94.8934 26.5822L96.0775 25.9718Z" fill="#FEFEFE"/>
<path d="M84.5019 80.7693C84.5584 80.8027 84.6248 80.8231 84.6714 80.8693C84.8343 81.0302 85.0906 82.3076 85.1681 82.5743C85.5811 83.9941 86.0856 85.3909 86.6483 86.7577C87.3039 88.3496 88.0483 89.9173 88.8984 91.4142L90.8443 94.557C91.093 94.9474 91.5475 95.4703 91.6556 95.9128C91.6942 96.0709 91.5071 96.3166 91.4313 96.4603L91.3306 96.4337C88.0023 93.116 86.0201 88.9962 84.7632 84.494C84.4923 83.5238 83.9958 81.6634 84.5019 80.7693Z" fill="#FEFEFE"/>
<path d="M67.9839 42.5643C68.2058 42.271 68.4628 41.9211 68.7722 41.7174C69.3746 41.3208 70.2224 41.0533 70.881 40.7427L75.6057 38.4286L82.0573 35.1257C83.4963 34.3528 85.1629 33.1277 86.7352 32.6901L87.2061 33.0693C85.982 33.6518 84.8539 34.4719 83.6736 35.1431L75.7526 39.3916C73.2155 40.6704 70.7734 41.9436 67.9839 42.5643Z" fill="#FEFEFE"/>
<path d="M63.2985 15.1838C63.6123 15.1654 63.9759 15.1136 64.2803 15.191C64.4704 15.2393 64.5946 15.4478 64.6741 15.6164C65.147 16.6171 65.3071 18.0607 65.4103 19.1583C65.4438 19.5153 65.5126 19.9627 65.3773 20.3041C65.1624 20.8467 64.1328 21.063 63.6125 21.2643L63.4278 21.2861C63.1914 21.2998 63.0429 21.2696 62.872 21.1092C62.6569 20.9079 62.488 20.6853 62.3904 20.4041C62.0858 19.5256 61.9595 18.5013 61.7536 17.5909C61.6255 17.0242 61.3804 16.4913 61.3608 15.9066C61.9394 15.3918 62.5629 15.3087 63.2985 15.1838Z" fill="#FBCA57"/>
<path d="M63.8095 67.9026C62.8954 66.8606 62.0851 65.7065 61.2652 64.5889L56.1511 56.9261C54.7795 54.6898 53.4603 52.3889 51.8628 50.304C52.9669 50.7725 53.8822 51.2378 55.0763 51.4745C55.6 52.9772 56.332 54.4406 57.0158 55.8765C58.129 58.214 59.2875 60.5191 60.6247 62.738L62.7027 66.0762C63.0776 66.6601 63.5825 67.2447 63.8095 67.9026Z" fill="#FEFEFE"/>
<path d="M53.1471 90.0534L63.6194 94.8886C62.9802 94.886 62.0361 94.4115 61.4245 94.2052L53.9684 91.489L53.1614 95.3883L51.7514 101.113C51.5939 101.798 51.0423 104.994 50.6431 105.414C50.3508 105.418 50.0328 105.502 49.8096 105.305L53.1471 90.0534Z" fill="#FEFEFE"/>
<path d="M47.3693 102.491C46.7919 102.525 46.2438 102.674 45.6749 102.763C44.5082 102.946 43.2893 103.072 42.1084 103.103C41.4804 103.119 40.8509 103.166 40.2579 102.921C39.3282 102.537 38.4459 101.881 37.5664 101.385C38.0633 101.004 39.0503 100.834 39.6622 100.666C42.471 99.8932 45.2687 99.3392 48.1551 98.944L47.589 101.526C47.5296 101.791 47.4867 102.259 47.3693 102.491Z" fill="white"/>
<path d="M84.2899 74.4729C84.3289 74.5119 84.3355 74.5737 84.3526 74.626L83.8345 75.6788C81.6742 79.7602 78.0659 83.3156 74.5639 86.2653C72.4573 88.0395 70.2416 89.8264 67.5725 90.6505C67.5692 90.0654 67.5754 89.4876 67.6235 88.9039C67.6303 88.8202 67.6369 88.4913 67.6645 88.436C67.7073 88.3501 68.7459 87.9355 68.88 87.8769C70.3553 87.2313 71.6694 86.3645 72.9742 85.4287C75.8142 83.3921 78.7737 81.1422 81.1515 78.5756C82.3328 77.3009 83.3346 75.9197 84.2899 74.4729Z" fill="#FEFEFE"/>
<path d="M86.9119 42.0942C87.4554 42.4638 88.0866 42.7637 88.6848 43.0355L90.1666 42.2251C90.459 42.5207 90.7824 42.8506 91.0105 43.2006C91.4121 43.8168 91.5182 44.242 92.1034 44.7459L92.2134 44.8388C91.6885 45.8221 91.1546 46.587 90.4154 47.4279C89.9191 47.8851 89.4532 48.2593 88.8679 48.5965L85.5068 47.0893C85.6272 45.1781 86.0656 43.8089 86.9119 42.0942Z" fill="#F14749"/>
<path d="M64.9748 25.601L65.1528 25.5873C65.5585 26.1544 65.6887 27.1842 65.8096 27.884C66.3143 30.8023 65.2543 33.6841 63.5707 36.0435L60.3689 34.6683C59.4635 34.2044 58.7187 33.7217 57.9487 33.0509L60.6638 32.123C61.2013 31.8869 61.7221 31.6203 62.1541 31.2157C63.5698 29.8895 64.2804 27.3675 64.9748 25.601Z" fill="#F14749"/>
<path d="M79.1393 35.0802L78.6762 35.1362C78.3742 34.8472 78.2266 34.1867 78.0737 33.7965L77.1255 31.6454C76.272 29.902 75.2452 28.3023 74.1254 26.7196C71.8435 26.3522 69.65 26.2043 67.3394 26.2487C69.6704 25.3642 72.4112 24.2753 74.9441 24.6146L75.1283 24.641C75.4561 24.6862 75.7733 24.7352 76.0907 24.8313C79.5583 25.8809 82.0259 29.5114 83.6353 32.5403L82.5945 33.063C80.9767 30.148 77.8561 28.3331 74.9721 26.8989C76.9544 29.4481 78.4347 31.8825 79.1393 35.0802Z" fill="#FEFEFE"/>
<path d="M93.1691 25.1858L93.4108 24.9379L94.509 26.29C94.9189 26.0835 95.3519 25.8142 95.7798 25.6573L96.0777 25.9718L94.8935 26.5822L94.8883 26.7428C95.1004 26.9567 95.1683 27.0728 95.466 27.1439L95.6581 27.2725L95.6992 27.5555L95.749 27.5301L96.9349 28.6517L97.9179 28.512L98.895 28.6697L99.243 28.6727L99.5422 29.1776C98.7367 29.192 97.8702 29.1436 97.0796 29.2973L96.8595 29.4988L96.9303 29.6561C97.0013 29.8185 97.0276 29.951 97.0401 30.1287C96.5361 30.578 95.5124 30.7633 94.8691 31.0843L93.0508 32.0526C92.718 32.216 92.2774 32.3672 92.032 32.6398C91.2552 31.4625 90.5037 30.4753 89.509 29.4713C89.3025 29.1561 88.9583 28.7383 88.9805 28.3495C89.0255 27.5572 90.0341 26.6391 90.6196 26.1518C90.8858 25.9301 91.1613 25.6331 91.519 25.6963C92.1289 25.8038 92.5268 25.5509 93.0478 25.2557L93.1691 25.1858Z" fill="#FEFEFE"/>
<path d="M93.1689 25.1858L93.4106 24.9379L94.5088 26.29C94.9188 26.0835 95.3517 25.8142 95.7797 25.6573L96.0775 25.9718L94.8933 26.5822L94.8881 26.7428C95.1002 26.9567 95.1682 27.0728 95.4658 27.1439L95.6579 27.2725L95.6991 27.5555L95.7488 27.5301L96.9347 28.6517L97.9178 28.512L98.8948 28.6697C98.2984 28.7726 97.8063 28.8818 97.2501 29.1286L97.0803 29.2024L96.9789 29.2483C96.7131 29.2343 96.6763 29.1969 96.4549 29.042C96.148 28.6553 95.861 28.2331 95.4554 27.9455C94.5228 27.4205 93.6599 26.1364 93.1689 25.1858Z" fill="white"/>
<path d="M81.6746 64.4749L82.0244 64.4801C81.8751 64.5361 81.7306 64.5911 81.5746 64.6257C76.398 65.7716 72.287 69.4437 68.829 73.2671C67.0804 75.2003 65.4338 77.2148 63.9217 79.339C62.8353 80.8649 61.9648 82.6128 60.8009 84.0674C60.4899 84.1592 60.3382 84.0261 60.0452 83.9029L58.8188 83.3116L61.6202 78.6705C66.0498 72.5373 74.041 65.7036 81.6746 64.4749Z" fill="#FEFEFE"/>
<path d="M55.9468 49.5478L55.8766 49.6985C54.6292 49.4558 53.4784 48.9681 52.3363 48.4196C50.6792 47.6237 49.2384 46.817 48.0849 45.3564C46.6959 43.5978 45.8234 41.4812 46.1109 39.2151C46.2862 37.8323 47.0028 36.7176 48.0927 35.8845C49.1662 35.0639 50.4434 34.3392 51.8383 34.57C52.1553 34.6224 52.5701 34.7293 52.7692 34.9956C52.3061 35.244 51.7948 35.3789 51.3294 35.6302C50.7022 35.9684 50.2167 36.4092 49.7099 36.8991L60.7006 39.8548C60.3176 40.1002 59.8559 40.4738 59.4195 40.5979L59.271 40.6365L48.6446 38.619C47.931 40.2421 47.4386 41.76 48.1291 43.4908C49.242 46.2812 52.9833 48.3824 55.6395 49.4368L55.9468 49.5478Z" fill="#FEFEFE"/>
<path d="M99.7264 24.2742L98.4463 23.5248C99.9692 20.8906 102.108 18.5205 103.961 16.1081L114.741 1.99371L115.811 3.51823L111.944 8.54276L105.951 16.387L101.413 22.1823C100.857 22.867 100.332 23.6364 99.7264 24.2742Z" fill="#FEFEFE"/>
<path d="M59.5143 20.2042L59.7238 20.201C59.8098 20.424 60.104 21.3677 60.058 21.559C60.0243 21.6993 59.5747 22.1123 59.4602 22.2358L56.9109 24.8909C56.5509 25.2325 55.3933 26.0568 55.2946 26.4506C55.4533 26.6751 55.54 26.7972 55.7895 26.9301C56.3116 26.6441 56.7668 26.1625 57.2041 25.7596C58.2965 24.7525 59.3127 23.691 60.2877 22.5708L60.6225 25.9961C60.645 26.2592 60.7709 26.8092 60.7163 27.0503C60.6971 27.1348 60.4642 27.3885 60.4067 27.4652L59.4682 28.7197C58.7108 29.7235 57.7088 31.0694 56.6344 31.7282C55.6172 32.3519 54.1877 32.7474 53.0173 32.9099C52.3239 32.1294 51.7025 31.3263 51.1573 30.4348L53.7327 29.7901C54.3933 29.6148 55.3607 29.3966 55.903 28.9764C56.0859 28.8347 56.1143 28.8203 56.1503 28.586C55.8146 28.4877 55.4619 28.6484 55.133 28.7311L52.9761 29.2083C52.1693 29.3538 51.3676 29.4473 50.5509 29.5149L49.3102 27.7151C51.3506 27.0165 53.3923 26.6945 55.3399 25.7075L48.959 26.7413C48.4687 25.6523 48.1481 24.5802 47.9502 23.4026C49.2962 23.2159 50.6666 22.8228 51.9852 22.489C54.5374 21.8429 57.0482 21.1309 59.5143 20.2042Z" fill="#FEFEFE"/>
<path d="M115.81 3.51819C116.861 5.51163 117.045 8.62965 116.711 10.8422C115.965 11.9379 115.003 12.9212 114.137 13.9276L109.607 19.2049L104.748 25.0508C103.939 26.0332 103.184 27.0746 102.317 28.005C101.757 26.7056 100.996 25.0487 99.7261 24.2742C100.331 23.6363 100.856 22.867 101.412 22.1822L105.951 16.3869L111.944 8.54266L115.81 3.51819Z" fill="#FBCA57"/>
<path d="M65.7422 99.8273L63.7829 105.141L61.9731 105.179C62.9256 102.265 63.922 99.2176 65.1757 96.4223C65.7446 95.1538 66.4622 93.9569 67.0944 92.7194C67.5301 92.5437 67.9883 92.4528 68.4258 92.2719C69.916 91.656 71.285 90.935 72.6592 90.0938C75.4815 94.1754 78.7227 97.6972 82.3256 101.097L84.9636 103.519C85.4829 103.976 86.0644 104.413 86.5375 104.915L84.5575 104.904C84.4812 104.904 84.0548 104.931 84.0032 104.901C83.6604 104.697 83.2763 104.193 82.958 103.919L78.3175 99.8478L65.7422 99.8273Z" fill="#FEFEFE"/>
<path d="M67.9258 95.1363C68.0789 94.8928 68.258 94.5794 68.4955 94.4087C68.937 94.0911 69.5749 93.9444 70.0685 93.7039C70.7647 93.3651 71.4022 92.8616 72.0013 92.3749L74.1976 95.21L67.9258 95.1363Z" fill="#FBCA57"/>
<path d="M67.9257 95.1364L74.1974 95.2101L78.318 99.8481L65.7427 99.8275L67.9257 95.1364Z" fill="#EC7A3B"/>
<path d="M87.2061 33.0693C88.3559 34.1968 89.088 35.4377 89.6241 36.9507C87.9171 38.4674 85.9994 39.7057 84.1531 41.0421L73.7347 48.2134C73.3491 48.4544 72.6149 49.0379 72.2052 49.1362C71.9205 49.2046 71.446 49.1466 71.1464 49.1494L68.7254 49.1482L57.3637 49.0117L57.2702 48.9562C57.1902 45.8831 58.4543 43.5829 60.2469 41.1667L65.0013 41.8991C65.8045 42.0046 66.6206 42.1503 67.4309 42.1543L66.3525 44.7097C66.9528 44.0542 67.3735 43.1668 67.9838 42.5643C70.7734 41.9437 73.2154 40.6704 75.7525 39.3917L83.6735 35.1432C84.8539 34.4719 85.982 33.6517 87.2061 33.0693Z" fill="#F14749"/>
<path d="M47.5962 50.1339C50.427 55.1375 53.118 60.1518 56.5908 64.758C57.5825 66.0732 58.6039 67.3843 59.7108 68.6046L61.6853 70.6938C61.9921 71.0162 62.3893 71.3538 62.6062 71.7377C61.0684 73.3498 59.6417 74.9839 58.3746 76.8214L57.0618 78.8351C56.8299 79.205 56.6097 79.646 56.315 79.9643C55.1763 79.7709 53.9658 79.5779 52.9402 80.2695L52.6601 80.4788C51.4718 81.7019 51.0606 83.0531 50.5961 84.6461L49.5123 89.1566L49.2805 72.1742C49.1797 71.4226 49.2265 70.6177 49.2199 69.8585L49.1841 65.8312C49.1783 65.2864 49.2958 64.3301 49.0434 63.8464L47.7505 95.6216L45.788 96.0756L45.4948 72.8238L45.4163 65.6036C45.4005 63.9831 45.4309 62.3554 45.2374 60.7442C45.0871 61.856 45.1104 62.9805 45.0779 64.0998L44.963 71.0834L44.7141 96.2433L41.9132 96.8775L41.453 59.5813C40.9195 60.3787 40.8021 93.5527 40.793 97.1194L38.1003 97.9368L37.5349 62.28C37.2021 65.3942 37.2588 68.5628 37.1921 71.6924L36.9642 89.7108L36.9289 95.4814C36.928 96.3863 37.0372 97.4573 36.8941 98.3414L35.6662 98.91C34.9512 97.534 34.4245 96.0313 33.938 94.561C32.0411 88.8273 31.4222 82.6656 32.1974 76.6707C33.2042 68.8834 36.279 61.6156 41.4982 55.7074C43.3259 53.6382 45.4131 51.8173 47.5962 50.1339Z" fill="url(#paint0_linear_19_2483)"/>
<defs>
<linearGradient id="paint0_linear_19_2483" x1="62.5327" y1="72.017" x2="30.8328" y2="75.816" gradientUnits="userSpaceOnUse">
<stop stop-color="#FE9F30"/>
<stop offset="1" stop-color="#E05C51"/>
</linearGradient>
</defs>
</svg>
