<svg width="74" height="72" viewBox="0 0 74 72" fill="none" xmlns="http://www.w3.org/2000/svg">
<path d="M28.6396 57.5503L29.6315 57.5516L29.7337 64.1552L28.7055 64.1899L28.6396 57.5503Z" fill="#121F5E"/>
<path d="M50.625 57.9149C50.9837 57.9144 54.664 57.9148 54.7347 57.981L54.724 58.6357L53.2269 58.6377L53.2488 63.1775L53.2451 64.6417L52.1529 64.6382L52.1518 58.6387L50.6326 58.6267L50.625 57.9149Z" fill="#121F5E"/>
<path d="M45.1816 57.5564L48.2098 57.6954L48.2065 58.7055L46.0961 58.6513L46.0898 59.9351C46.0891 60.1295 46.0614 60.3625 46.1166 60.5468L47.8516 60.6352L47.8466 61.6414L46.0977 61.5569L46.0964 62.6405L46.102 63.3808L48.2397 63.4723L48.2421 64.4847L45.1646 64.3396L45.1816 57.5564Z" fill="#121F5E"/>
<path d="M33.3331 57.4448L34.8427 57.4497C35.061 57.4518 35.3435 57.4207 35.522 57.5623C36.0932 58.0156 36.1266 59.1031 36.2034 59.7666L35.0731 59.774L35.0409 58.5129L33.665 58.4814L33.6919 63.13C34.0831 63.1495 34.5697 63.1737 34.9505 63.0885L35.0014 62.9203L35.0618 61.9431L36.2248 61.9382C36.1982 62.3869 36.1492 63.0347 35.944 63.4343C35.8239 63.6682 35.6167 63.8701 35.4383 64.0613L33.8998 64.0791C33.7407 64.0783 33.4966 64.1078 33.3523 64.058C33.2481 64.022 33.117 63.9108 33.0375 63.8366C32.9427 63.7481 32.7586 63.5362 32.7118 63.4177C32.6703 63.3126 32.6852 63.1203 32.6854 63.0088L32.6893 61.9851L32.6646 58.0976C32.8688 57.8534 33.0921 57.6519 33.3331 57.4448Z" fill="#121F5E"/>
<path d="M38.98 57.4077L39.9057 57.417L39.9131 60.5238L41.637 57.4632C41.9773 57.4079 42.4101 57.477 42.7593 57.4931L40.9314 60.4465L42.1813 63.0773L42.765 64.2546L41.6264 64.2344C41.4711 64.0412 41.3915 63.7014 41.2863 63.4717L40.2563 61.2337L40.2208 61.2504C40.1511 61.3546 39.9328 61.6067 39.9107 61.7137C39.8693 61.9145 39.9107 62.2237 39.9106 62.4341L39.9104 64.2325L38.9766 64.2272L38.98 57.4077Z" fill="#121F5E"/>
<path d="M16.841 58.0837L18.1044 58.042C18.4776 58.0434 18.7391 58.1219 19.0013 58.3973C19.4487 58.867 19.3466 59.6683 19.3457 60.2696L18.212 60.3274L18.1698 59.1564C17.9198 59.0674 17.2484 59.075 16.9997 59.1851C16.9009 59.2288 16.8506 59.3101 16.8065 59.4031L16.8854 62.7369C16.8917 63.0446 16.8419 63.6898 17.0121 63.9384C17.1459 64.021 17.236 64.0273 17.3909 64.0302C17.7172 64.0365 17.996 64.0569 18.2457 63.8189C18.3576 63.5093 18.2739 63.0105 18.2593 62.6761C18.2496 62.5603 18.2461 62.4989 18.2971 62.3931L19.4229 62.3256C19.411 62.9475 19.5779 63.713 19.2936 64.288C19.1483 64.5816 18.8807 64.7927 18.574 64.8984C18.0935 65.0639 16.8671 65.1836 16.4294 64.9321C16.0983 64.7418 15.8884 64.426 15.8101 64.0581C15.6746 63.4208 15.7587 62.6573 15.7422 61.9982C15.7199 61.1043 15.6087 60.1429 15.6863 59.2549C15.7068 59.0212 15.7645 58.8127 15.9034 58.6207C16.1489 58.2817 16.442 58.1544 16.841 58.0837Z" fill="#121F5E"/>
<path d="M24.119 57.7248L24.7825 57.6724C24.9629 57.8389 25.2529 58.042 25.392 58.2351C25.4695 58.3428 25.4742 58.6909 25.4866 58.8303L25.6429 60.5875L25.0145 61.2641L26.085 64.3152L24.9796 64.3962L24.2369 62.0466C24.0479 61.8765 23.501 61.9644 23.2315 61.9704L23.2626 64.5373L22.1345 64.5728L21.9214 57.8936L24.119 57.7248Z" fill="#121F5E"/>
<path d="M23.7565 58.8631L24.4648 58.8352C24.481 59.4298 24.7583 60.183 24.4134 60.7054C24.3196 60.8474 24.1172 60.8247 23.9648 60.8436L23.2375 60.8979L23.127 58.8864L23.7565 58.8631Z" fill="#FEFEFE"/>
<path d="M47.8975 25.1718L48.7247 24.009C53.4785 27.2965 56.6154 32.4518 57.6582 38.1034C58.4122 42.1907 57.899 46.3099 56.4958 50.1949C56.2316 50.9262 55.9253 51.6295 55.5814 52.3264C55.4381 52.6168 55.3048 52.9346 55.1301 53.2064C54.7152 52.8434 54.3669 52.4067 54.0044 51.9927C53.2905 51.1776 52.5924 50.3367 51.8019 49.5939L51.8046 48.8138L51.6088 48.254C51.2911 47.5699 50.6667 47.0722 49.9612 46.8326C49.2794 46.6011 48.4114 46.5403 47.7627 46.8699L47.7013 46.9017C47.2259 46.2962 46.8696 45.5182 46.5371 44.8249C47.9555 44.3492 49.3251 43.7112 50.6567 43.0314C51.6131 42.5433 52.5765 42.0356 53.4841 41.4608L56.3331 39.5519C56.1228 38.1062 55.8239 36.6138 55.3505 35.2299C54.5308 32.834 53.1517 30.466 51.4908 28.5532C50.4053 27.3031 49.1795 26.2141 47.8975 25.1718Z" fill="#121F5E"/>
<path d="M56.3331 39.552C56.5021 41.5331 56.5152 43.4893 56.2023 45.459C55.9921 46.7821 55.6299 48.0503 55.2425 49.3298C54.4567 49.1677 53.6641 49.073 52.8699 48.9637C52.5254 48.9162 52.1477 48.8214 51.8046 48.8139L51.6088 48.2541C51.2911 47.5699 50.6667 47.0723 49.9612 46.8327C49.2794 46.6012 48.4114 46.5404 47.7627 46.87L47.7013 46.9018C47.2259 46.2963 46.8696 45.5183 46.5371 44.825C47.9555 44.3493 49.3251 43.7113 50.6567 43.0315C51.6131 42.5433 52.5765 42.0357 53.4841 41.4609L56.3331 39.552Z" fill="#EC7A3B"/>
<path d="M46.5368 44.8248C45.8493 43.5224 45.4753 42.0032 44.9457 40.6259L45.6534 39.7248C47.1072 37.7165 46.9659 34.8268 45.6142 32.8006C45.4072 32.4901 45.1793 32.1999 44.9214 31.9302C44.7743 31.7763 44.4375 31.5158 44.346 31.3466C44.2157 31.1055 44.1816 30.555 44.1249 30.2719L43.2793 25.745C43.8891 26.1637 44.8695 26.6799 45.6152 26.7079C46.5224 26.7422 47.2882 25.7446 47.8973 25.1716C49.1793 26.2139 50.405 27.3029 51.4906 28.5531C53.1515 30.4658 54.5305 32.8339 55.3502 35.2298C55.8236 36.6136 56.1226 38.106 56.3329 39.5518L53.4838 41.4606C52.5762 42.0355 51.6128 42.5431 50.6565 43.0313C49.3248 43.7111 47.9552 44.349 46.5368 44.8248Z" fill="#FBCA57"/>
<path d="M35.6111 65.6946L42.7629 65.847L49.8562 66.3115C53.8628 66.7123 57.8129 67.3839 61.7319 68.3057C63.9725 68.8327 66.214 69.416 68.3991 70.1417L71.7647 71.3604C72.2311 71.5554 72.7256 71.739 73.1588 71.9999L69.4778 71.2689L61.9036 70.0826C53.8802 69.0151 45.8085 68.7015 37.7228 68.6227C27.6562 68.5917 17.5403 69.1837 7.57444 70.629L2.03045 71.5457L0 71.9593C0.729775 71.5318 1.60939 71.2374 2.40086 70.946L5.3384 69.9092C10.7805 68.163 16.4953 66.9943 22.1777 66.3921C26.6466 65.9184 31.121 65.7638 35.6111 65.6946Z" fill="#121F5E"/>
<path d="M24.1691 52.7095L23.7415 54.3664L24.4453 54.3112L25.6388 49.2072C25.9762 47.4194 26.1502 45.6697 26.6717 43.9131C26.791 43.511 26.8963 43.0803 27.0632 42.695C27.1951 42.3907 27.4405 42.0312 27.7742 41.9254C28.204 41.7892 28.8029 42.1669 29.1755 42.3569C30.3645 40.4013 31.6144 38.3714 33.3995 36.8952C32.8515 36.3961 32.3416 35.8364 31.8375 35.293C29.9559 33.265 28.3096 30.9849 26.9313 28.5874L25.3129 25.6793C25.1868 25.4517 25.1021 25.1305 24.9437 24.9331C24.8806 24.8545 24.8121 24.8115 24.7267 24.7619C23.8476 24.2528 23.2213 23.3674 22.8356 22.4485C22.3945 21.3973 22.3786 20.1538 22.8165 19.0987C23.3383 17.8417 24.2479 17.0593 25.478 16.5406C25.3441 16.2535 25.0472 15.9527 24.8706 15.6734C24.14 14.5173 23.6728 13.4687 23.451 12.1106C23.2221 12.0736 22.859 12.2044 22.6316 12.2611L20.6421 12.7773C20.9387 11.5408 21.5768 10.9466 22.6007 10.2584C22.5598 9.59865 22.5821 8.95667 22.7024 8.30616C22.9587 6.91993 23.7385 5.69304 24.9131 4.90253C26.2422 4.00799 28.08 3.7624 29.6293 4.07572C30.917 4.33612 32.0739 5.19685 32.7784 6.29771C33.6302 7.62844 33.9987 9.35491 33.8359 10.9198C33.7872 11.3878 33.6545 11.8748 33.5517 12.3365C33.7773 12.5129 33.9697 12.6923 34.1628 12.9032L35.6696 12.0804C36.9232 11.525 38.4286 11.173 39.7507 11.6843C41.6473 12.4179 42.9019 14.5569 43.6699 16.3258C43.8626 16.2267 44.084 16.1257 44.251 15.9871C44.5123 15.7701 44.7466 15.4105 44.9594 15.1413C44.8648 14.8872 44.7961 14.6607 44.8209 14.3858C44.8769 13.763 45.5164 13.1192 45.9931 12.7525C46.3309 12.4926 46.6177 12.3794 47.0404 12.4423C47.1438 12.4576 47.7647 11.5379 48.5673 11.4032C48.9301 11.3422 49.1442 11.38 49.4375 11.6011L49.4923 11.6431C50.1979 10.9201 50.7892 9.96256 51.4056 9.15465L56.0487 3.08158L57.5655 1.11618C57.8614 0.738196 58.1404 0.346321 58.474 0C59.0865 0.285373 59.5783 0.722565 59.9812 1.25978C60.735 2.26525 61.0856 3.55156 60.8997 4.80292L60.8859 4.89113C60.8258 5.31651 60.6908 5.92804 60.4526 6.29297C60.2981 6.52971 60.0732 6.74229 59.8887 6.95827L58.8225 8.23616L53.9575 14.0092L53.0424 15.0461C52.9552 15.1425 52.74 15.3328 52.6904 15.444C52.6617 15.5086 52.6962 15.7639 52.6989 15.8415C52.7091 16.1278 52.7139 16.4052 52.656 16.6871C52.5169 17.3656 52.1455 17.7977 51.5887 18.168C51.6443 18.3077 51.6984 18.4496 51.7266 18.5979C51.902 19.518 51.4787 20.7136 50.9665 21.4728C50.4802 22.1938 49.6679 23.065 48.7665 23.2194L48.6992 23.2294C48.4726 23.2642 48.2749 23.2647 48.0481 23.2449L47.9744 23.238L47.2994 24.3506C47.0065 24.7386 46.118 25.6438 45.6109 25.6913C45.3371 25.717 44.999 25.5544 44.7492 25.4494C43.7584 25.033 42.918 24.4904 42.0738 23.832L42.3337 25.6547L43.0848 30.0118C43.189 30.6069 43.2208 31.348 43.4184 31.9055C43.4545 32.0073 43.6416 32.1171 43.7285 32.188C44.761 33.0303 45.5485 34.3895 45.6738 35.7232C45.7964 37.0275 45.5149 38.1797 44.8025 39.2804C44.5384 39.6885 44.2052 40.0625 43.8958 40.437L44.5523 42.5584C45.258 44.5424 46.237 46.4981 47.3848 48.2589L47.6556 47.9761C48.0103 47.6376 48.6413 47.6423 49.1037 47.6566C49.6696 47.674 50.1108 47.8873 50.4963 48.3028C50.7401 48.5654 50.9083 48.8505 50.8907 49.2176L50.8551 49.9994C51.222 50.5345 51.7529 51.0144 52.1937 51.4936L53.9311 53.4973L54.4894 54.1963C54.5696 54.3065 54.6711 54.5039 54.7964 54.556C55.0308 54.6536 55.463 54.6544 55.7319 54.6986L58.5735 55.1968C61.7604 55.8095 64.9384 56.5888 68.0252 57.5927C69.0316 57.9201 70.0868 58.2467 71.0283 58.7353L63.0084 57.1552L50.5914 55.5161C47.3222 55.2119 44.0121 55.2142 40.7308 55.1633L26.618 55.384L21.0362 55.7755C14.3764 56.2782 7.73991 57.0717 1.25244 58.7073C1.75411 58.3193 2.56875 58.1339 3.17084 57.9264C8.05508 56.2443 13.2285 55.3538 18.3439 54.7346C17.8988 53.9577 17.4192 53.2074 17.0223 52.4033C15.0757 48.4584 14.1564 43.9753 14.6727 39.5854C15.2302 34.8455 17.2579 30.4471 20.6578 27.0739C21.4484 26.2895 22.328 25.5969 23.2003 24.9074C23.5808 25.1725 23.9886 25.4223 24.2858 25.7832C25.7416 28.3566 27.1256 30.9353 28.9116 33.3042C29.4216 33.9806 29.9469 34.6549 30.5162 35.2825L31.5316 36.3569C31.6894 36.5227 31.8937 36.6963 32.0052 36.8938C31.2144 37.7229 30.4806 38.5633 29.829 39.5083L29.1538 40.5439C29.0346 40.7341 28.9213 40.9609 28.7698 41.1246C28.1841 41.0252 27.5616 40.9259 27.0341 41.2816L26.8901 41.3892C26.2789 42.0182 26.0675 42.7131 25.8286 43.5324L25.2712 45.8521L24.8245 49.114L24.9532 49.2484C24.8814 49.7929 24.7167 50.3552 24.5732 50.8856L24.2821 52.2138C24.2515 52.3497 24.2294 52.5904 24.1691 52.7095Z" fill="#121F5E"/>
<path d="M46.8625 20.8247C47.0428 20.843 47.1222 20.8163 47.2477 20.9532C47.2476 21.1532 47.2584 21.2789 47.133 21.4415L46.8746 21.397C46.7292 21.2298 46.8996 21.2067 46.9019 21.0303C46.9029 20.9605 46.8756 20.8933 46.8625 20.8247Z" fill="#FEFEFE"/>
<path d="M48.85 16.1227C49.1406 15.9876 49.3852 15.9229 49.7067 15.8904L49.7755 16.0703L49.7273 16.1618C49.3236 16.2015 49.1002 16.2615 48.7562 16.4807L48.6914 16.2759L48.85 16.1227Z" fill="#FEFEFE"/>
<path d="M50.4305 15.4567L50.6785 15.4475C50.8472 15.46 50.8848 15.5086 50.9915 15.6335C51.0027 15.7879 51.0293 15.8801 50.9612 16.0212L50.7691 16.0608C50.6684 16.052 50.4964 16.0547 50.4101 16.0018C50.2945 15.931 50.1399 15.709 50.1035 15.5821L50.4305 15.4567Z" fill="#FEFEFE"/>
<path d="M46.0709 16.6765L45.974 16.699L45.2417 15.9202C45.3581 15.7921 45.4551 15.6861 45.6069 15.6008C45.8487 15.8623 46.2821 16.1982 46.4123 16.5219L46.0709 16.6765Z" fill="#FEFEFE"/>
<path d="M49.3872 17.0579L50.1936 17.1442C50.3671 17.3185 50.5187 17.4868 50.5471 17.7407L50.3955 17.8742L50.2341 17.8129C49.9786 17.715 49.7137 17.6396 49.4485 17.5728C49.282 17.5308 49.062 17.5084 48.9307 17.3932L48.9555 17.2782C49.0765 17.1217 49.2007 17.104 49.3872 17.0579Z" fill="#FEFEFE"/>
<path d="M49.0503 14.1583C49.2844 13.9751 49.8895 13.9779 50.1901 14.0229C50.4661 14.0643 50.604 14.3274 50.7437 14.5404L50.7775 14.5923L50.1658 14.6633L49.6602 14.7351L49.0503 14.1583Z" fill="#FEFEFE"/>
<path d="M46.1767 19.8481L46.245 19.8487L46.2874 19.8996C46.1716 20.2745 46.1005 20.9883 45.7371 21.1779C45.5413 21.2799 45.2162 21.1212 45.0109 21.0629C44.9138 21.0276 44.8594 21.006 44.7905 20.9275C45.0247 20.5111 45.7708 20.0968 46.1767 19.8481Z" fill="#FEFEFE"/>
<path d="M32.6306 13.0122L32.6454 13.0379C32.6165 13.2802 32.5041 13.531 32.4154 13.7575C32.2016 14.303 31.8378 15.166 31.3983 15.5585C31.1424 15.787 30.7923 15.9188 30.4814 16.0556L32.6306 13.0122Z" fill="#FEFEFE"/>
<path d="M47.8477 12.8253C48.1718 12.5551 48.5204 12.2799 48.9071 12.1067C49.2021 12.3388 49.4286 12.5513 49.6428 12.8635L49.066 13.1952C48.8459 13.2759 48.6233 13.4144 48.4124 13.5206L47.8477 12.8253Z" fill="#FEFEFE"/>
<path d="M47.675 21.0818L47.7559 21.0558C48.0251 21.0012 48.7375 21.2082 48.9428 21.3769C49.0113 21.6995 48.6866 22.2462 48.5135 22.521C48.4035 22.5529 48.3405 22.5439 48.2292 22.521C48.235 22.3383 48.3547 22.2353 48.3228 22.0584L47.7743 21.8861L47.595 21.8255C47.4453 21.752 47.3476 21.6213 47.3062 21.4673C47.3431 21.3066 47.5487 21.1829 47.675 21.0818Z" fill="#FEFEFE"/>
<path d="M28.9975 9.67014L29.104 9.66211L28.9109 9.72893C27.989 10.1053 26.9498 10.314 25.9906 10.5985C24.7358 10.9705 23.485 11.4367 22.2034 11.7061C22.117 11.7292 22.1212 11.7479 22.0386 11.7014C22.4238 11.3159 23.2396 11.1133 23.7567 10.958C25.4667 10.4442 27.2511 10.0431 28.9975 9.67014Z" fill="#FEFEFE"/>
<path d="M44.0227 21.5444L44.0989 21.5526C44.1084 21.8547 43.7394 22.3891 43.6192 22.7051C43.4791 23.0739 43.4016 23.4547 43.334 23.8421C43.1835 23.8219 42.856 23.5161 42.7185 23.4153L42.2612 23.1002C42.8167 22.5398 43.3533 21.9725 44.0227 21.5444Z" fill="#AC2242"/>
<path d="M30.792 21.1715C30.9801 20.9566 31.1442 20.8203 31.3886 20.6721L34.6162 21.377L34.6535 21.4543L34.4867 21.6794C34.0699 21.6774 33.6502 21.6025 33.2372 21.5482L30.792 21.1715Z" fill="#FEFEFE"/>
<path d="M27.8832 43.1243C29.0264 43.6467 30.0521 44.2642 31.1174 44.9257C31.4184 45.1126 31.7642 45.2762 32.0296 45.5085L31.9015 45.4961L29.0704 44.2517C28.6433 44.0658 28.2 43.8162 27.7504 43.7036L27.7036 43.6928C27.7429 43.4996 27.8195 43.3109 27.8832 43.1243Z" fill="#FEFEFE"/>
<path d="M27.4474 44.7529L32.0203 47.1369L31.9161 47.141L27.2681 45.2289L27.4474 44.7529Z" fill="#FEFEFE"/>
<path d="M49.5321 48.7344L49.6273 48.7151C49.7826 48.7824 49.8566 48.8468 49.9656 48.9753C49.7981 50.5529 48.9316 52.1528 47.9139 53.3379L47.7774 53.4947L47.7417 53.4888C48.6223 52.067 49.3017 50.3965 49.5321 48.7344Z" fill="#FEFEFE"/>
<path d="M48.5717 48.6316L48.7156 48.6294C48.524 49.153 48.3857 49.6945 48.175 50.2116C47.5736 51.6881 46.4959 52.8618 45.1281 53.6686L45.021 53.6751C45.24 53.4491 45.5068 53.2704 45.7439 53.063C46.0999 52.7518 46.439 52.4023 46.7259 52.0258C47.2548 51.3314 47.602 50.5806 47.9251 49.7751C48.0441 49.4781 48.1565 49.0587 48.333 48.7963C48.3901 48.7116 48.4836 48.6745 48.5717 48.6316Z" fill="#FEFEFE"/>
<path d="M47.9465 17.6599C48.5778 17.7032 49.2282 17.7212 49.8324 17.9299C50.0478 18.0043 50.2204 18.066 50.324 18.281C50.3031 18.5456 50.2488 18.7572 50.0616 18.9526C49.2919 18.6209 48.3912 18.5198 47.5742 18.3577C47.6672 18.1069 47.808 17.8872 47.9465 17.6599Z" fill="#FEFEFE"/>
<path d="M45.6069 15.6009L45.6157 15.4903L45.7827 15.6337C45.8826 15.5542 45.9859 15.578 46.1107 15.5738L45.7963 15.248L45.8412 15.1567C46.3528 15.6731 46.7393 16.1808 47.1387 16.7863C47.265 16.6461 47.4915 16.5684 47.6627 16.4843L48.5979 15.9863L48.8503 16.1228L48.6917 16.276L48.7565 16.4808C48.6371 16.6434 48.5121 16.6655 48.3395 16.7384L48.2642 16.7768C48.1943 16.8118 48.1564 16.825 48.0825 16.8394C47.8901 16.8768 47.6969 16.9673 47.5171 17.0468L47.2415 17.2121L46.9739 17.3927L46.9453 17.6174C46.9134 17.688 46.9353 17.6522 46.874 17.7209C46.6256 17.4818 46.3395 17.1886 46.2052 16.8685C46.1671 16.7805 46.1352 16.7451 46.0709 16.6766L46.4124 16.522C46.2821 16.1983 45.8487 15.8623 45.6069 15.6009Z" fill="#101A6C"/>
<path d="M46.2051 16.8684L46.4636 16.6846C46.693 16.8321 46.8472 17.3624 46.9451 17.6172C46.9132 17.6879 46.9351 17.6521 46.8739 17.7208C46.6254 17.4816 46.3393 17.1885 46.2051 16.8684Z" fill="#FEFEFE"/>
<path d="M49.2663 21.1061C48.6416 20.9711 47.9761 20.6002 47.3279 20.6438C47.0694 20.6612 46.8455 20.6663 46.6226 20.5164C46.5593 20.3229 46.6744 20.0202 46.7204 19.8229C47.6083 19.7575 48.683 19.9152 49.5192 20.2371C49.514 20.5917 49.4818 20.8184 49.2663 21.1061Z" fill="#FEFEFE"/>
<path d="M46.9469 18.7056C47.7102 18.6804 48.345 18.7784 49.0847 18.9457C49.328 19.0007 49.6358 19.039 49.83 19.2068C49.9448 19.3061 49.9443 19.3468 49.9676 19.4884C49.9092 19.665 49.8527 19.7621 49.7266 19.8996C49.6685 19.9125 49.6472 19.9204 49.591 19.923C49.4361 19.9299 49.2618 19.864 49.1104 19.8281L48.1827 19.6219C47.8009 19.5448 47.4139 19.5075 47.0281 19.4562C46.9218 19.442 46.78 19.4499 46.6997 19.378C46.7568 19.1305 46.8347 18.9327 46.9469 18.7056Z" fill="#FEFEFE"/>
<path d="M51.1628 52.0095L53.0703 54.3339L52.2581 54.2689L50.2842 54.0952C50.7191 53.4234 50.9405 52.7694 51.1628 52.0095Z" fill="#AC2242"/>
<path d="M49.7201 20.2768L50.0894 19.8713C50.1349 19.8188 50.162 19.7727 50.1792 19.7045C50.2278 19.5128 50.1983 19.3037 50.25 19.1083C50.3137 18.8669 50.5037 18.5172 50.4753 18.2742C50.4636 18.1731 50.4115 18.0753 50.3635 17.9873C50.4476 18.0244 50.5022 18.0626 50.5752 18.1173L50.7524 18.1008C50.9786 18.3379 51.1094 18.8488 51.1056 19.1673C51.0946 20.0752 50.5159 21.1531 49.8557 21.7652C49.5917 22.0101 49.317 22.2047 49.0068 22.3861C49.0865 22.1948 49.1812 21.9971 49.2346 21.7971C49.292 21.5828 49.2956 21.4103 49.4413 21.2278L49.4574 21.2188C49.7518 20.9033 49.7561 20.6765 49.7201 20.2768Z" fill="#FEFEFE"/>
<path d="M28.0709 4.83485C28.5666 4.77482 29.0674 4.82282 29.5563 4.90969C28.1026 5.04951 26.3524 5.21951 25.1964 6.21903C24.2792 7.01201 24.2713 8.09127 24.1868 9.20963C24.1874 9.38182 24.1964 9.55184 24.1563 9.72053L23.3516 9.95582C23.38 8.83728 23.6194 7.45815 24.3402 6.56351C25.3419 5.32007 26.5421 4.99582 28.0709 4.83485Z" fill="#FEFEFE"/>
<path d="M49.2191 13.3569C49.4526 13.2606 49.6764 13.1739 49.9231 13.1148C50.0595 12.981 50.1336 12.8548 50.3441 12.8743C50.7046 12.9077 51.1342 13.396 51.3215 13.6725C51.8769 14.4929 52.1795 15.6933 51.9611 16.6715C51.8829 17.0223 51.7409 17.2835 51.5006 17.5491L51.4169 17.5351C51.281 17.2135 51.2791 16.94 51.3734 16.6099C51.5282 16.0676 51.5241 15.3782 51.2329 14.8834C51.0861 14.6213 50.7198 13.9604 50.4358 13.8655C50.0101 13.7234 49.3068 13.767 48.9045 13.9597C48.7515 13.9231 48.7165 13.8634 48.6074 13.7534L48.6101 13.6708L49.2191 13.3569Z" fill="#FEFEFE"/>
<path d="M43.266 41.5386C43.2951 41.5557 43.3292 41.5662 43.3532 41.59C43.437 41.6727 43.5688 42.3297 43.6087 42.4669C43.821 43.197 44.0805 43.9154 44.3699 44.6183C44.7071 45.437 45.0899 46.2432 45.5271 47.0131L46.5278 48.6294C46.6557 48.8301 46.8895 49.099 46.9451 49.3266C46.9649 49.408 46.8687 49.5343 46.8297 49.6082L46.7779 49.5945C45.0662 47.8883 44.0468 45.7695 43.4004 43.4541C43.2611 42.9551 43.0058 41.9984 43.266 41.5386Z" fill="#FEFEFE"/>
<path d="M34.771 21.8901C34.8851 21.7393 35.0173 21.5594 35.1764 21.4546C35.4862 21.2506 35.9222 21.1131 36.2609 20.9533L38.6908 19.7632L42.0088 18.0646C42.7488 17.6671 43.6059 17.037 44.4145 16.812L44.6567 17.007C44.0272 17.3066 43.447 17.7283 42.84 18.0735L38.7663 20.2585C37.4615 20.9161 36.2056 21.571 34.771 21.8901Z" fill="#FEFEFE"/>
<path d="M32.3612 7.80877C32.5226 7.79932 32.7096 7.77269 32.8662 7.81248C32.964 7.83734 33.0278 7.94458 33.0687 8.03124C33.3119 8.54593 33.3943 9.28834 33.4473 9.85283C33.4646 10.0364 33.4999 10.2665 33.4303 10.4421C33.3198 10.7212 32.7903 10.8324 32.5227 10.9359L32.4278 10.9471C32.3062 10.9541 32.2298 10.9386 32.1419 10.8562C32.0313 10.7526 31.9444 10.6381 31.8943 10.4935C31.7376 10.0417 31.6726 9.51495 31.5668 9.04671C31.5009 8.75528 31.3748 8.48122 31.3647 8.18054C31.6623 7.91577 31.9829 7.873 32.3612 7.80877Z" fill="#FBCA57"/>
<path d="M32.6245 34.9213C32.1544 34.3855 31.7377 33.7919 31.316 33.2171L28.6859 29.2763C27.9805 28.1262 27.302 26.9429 26.4805 25.8706C27.0483 26.1116 27.519 26.3509 28.1332 26.4726C28.4025 27.2454 28.7789 27.998 29.1306 28.7365C29.7031 29.9386 30.2989 31.1241 30.9866 32.2652L32.0553 33.9821C32.2481 34.2823 32.5077 34.583 32.6245 34.9213Z" fill="#FEFEFE"/>
<path d="M27.1403 46.3132L32.526 48.7999C32.1973 48.7986 31.7118 48.5545 31.3972 48.4485L27.5626 47.0515L27.1476 49.0569L26.4225 52.0011C26.3415 52.3532 26.0578 53.9971 25.8525 54.2131C25.7022 54.215 25.5386 54.258 25.4238 54.157L27.1403 46.3132Z" fill="#FEFEFE"/>
<path d="M24.1694 52.7094C23.8725 52.727 23.5906 52.8039 23.298 52.8497C22.698 52.9435 22.0711 53.0085 21.4638 53.0242C21.1408 53.0325 20.8171 53.0568 20.5121 52.9309C20.034 52.7334 19.5803 52.396 19.1279 52.1411C19.3835 51.9451 19.8911 51.8575 20.2058 51.7709C21.6503 51.3737 23.0891 51.0887 24.5735 50.8855L24.2824 52.2137C24.2519 52.3497 24.2298 52.5903 24.1694 52.7094Z" fill="#44549B"/>
<path d="M43.157 38.3003C43.177 38.3203 43.1804 38.3521 43.1892 38.379L42.9228 38.9205C41.8117 41.0195 39.9561 42.8479 38.155 44.3649C37.0716 45.2774 35.9321 46.1964 34.5595 46.6202C34.5577 46.3193 34.5609 46.0221 34.5857 45.722C34.5892 45.6789 34.5926 45.5098 34.6068 45.4813C34.6288 45.4371 35.1629 45.2239 35.2319 45.1938C35.9906 44.8617 36.6664 44.416 37.3375 43.9347C38.798 42.8873 40.3201 41.7302 41.543 40.4103C42.1505 39.7547 42.6657 39.0444 43.157 38.3003Z" fill="#FEFEFE"/>
<path d="M44.5053 21.6484C44.7848 21.8385 45.1094 21.9927 45.4171 22.1325L46.1791 21.7158C46.3295 21.8678 46.4959 22.0374 46.6132 22.2174C46.8197 22.5343 46.8743 22.753 47.1752 23.0121L47.2318 23.0599C46.9618 23.5656 46.6873 23.959 46.3071 24.3915C46.0519 24.6266 45.8122 24.819 45.5113 24.9924L43.7827 24.2173C43.8446 23.2344 44.0701 22.5302 44.5053 21.6484Z" fill="#F14749"/>
<path d="M33.2238 13.1662L33.3153 13.1592C33.524 13.4508 33.5909 13.9804 33.6531 14.3403C33.9126 15.8412 33.3675 17.3232 32.5016 18.5366L30.855 17.8294C30.3894 17.5908 30.0063 17.3425 29.6104 16.9976L31.0067 16.5204C31.2831 16.399 31.551 16.2618 31.7731 16.0538C32.5012 15.3717 32.8666 14.0747 33.2238 13.1662Z" fill="#F14749"/>
<path d="M40.5085 18.0412L40.2703 18.07C40.115 17.9214 40.0391 17.5817 39.9605 17.381L39.4728 16.2747C39.0339 15.3781 38.5058 14.5554 37.9299 13.7415C36.7564 13.5525 35.6283 13.4765 34.4399 13.4993C35.6388 13.0444 37.0483 12.4844 38.351 12.6589L38.4457 12.6725C38.6142 12.6957 38.7774 12.7209 38.9406 12.7703C40.724 13.3101 41.993 15.1773 42.8207 16.7349L42.2855 17.0038C41.4534 15.5047 39.8485 14.5712 38.3654 13.8337C39.3848 15.1447 40.1461 16.3966 40.5085 18.0412Z" fill="#FEFEFE"/>
<path d="M47.7235 12.9527L47.8478 12.8252L48.4126 13.5205C48.6234 13.4143 48.8461 13.2759 49.0662 13.1952L49.2193 13.3569L48.6103 13.6708L48.6077 13.7534C48.7167 13.8634 48.7517 13.9231 48.9047 13.9597L49.0035 14.0258L49.0247 14.1714L49.0503 14.1583L49.6602 14.7351L50.1658 14.6633L50.6682 14.7444L50.8472 14.7459L51.0011 15.0056C50.5868 15.013 50.1412 14.9881 49.7346 15.0672L49.6214 15.1708L49.6578 15.2517C49.6943 15.3352 49.7079 15.4033 49.7143 15.4947C49.4551 15.7258 48.9286 15.8211 48.5978 15.9862L47.6626 16.4841C47.4915 16.5682 47.2649 16.6459 47.1387 16.7862C46.7392 16.1807 46.3527 15.673 45.8412 15.1566C45.735 14.9945 45.558 14.7797 45.5694 14.5797C45.5925 14.1722 46.1112 13.7001 46.4123 13.4495C46.5492 13.3355 46.6909 13.1827 46.8749 13.2152C47.1885 13.2705 47.3932 13.1405 47.6611 12.9886L47.7235 12.9527Z" fill="#FEFEFE"/>
<path d="M47.7236 12.9527L47.8479 12.8252L48.4127 13.5205C48.6235 13.4143 48.8462 13.2759 49.0663 13.1952L49.2194 13.3569L48.6105 13.6708L48.6078 13.7534C48.7169 13.8634 48.7518 13.9231 48.9049 13.9597L49.0037 14.0258L49.0248 14.1714L49.0504 14.1583L49.6603 14.7351L50.1659 14.6633L50.6684 14.7444C50.3616 14.7973 50.1085 14.8535 49.8225 14.9804L49.7352 15.0183L49.6831 15.042C49.5463 15.0348 49.5274 15.0155 49.4135 14.9359C49.2557 14.737 49.1081 14.5199 48.8995 14.3719C48.4199 14.102 47.9761 13.4416 47.7236 12.9527Z" fill="#101A6C"/>
<path d="M41.812 33.1584L41.9919 33.1611C41.9151 33.1899 41.8408 33.2182 41.7606 33.236C39.0983 33.8253 36.9841 35.7138 35.2057 37.6801C34.3064 38.6744 33.4596 39.7104 32.6819 40.8028C32.1232 41.5876 31.6755 42.4865 31.0769 43.2346C30.917 43.2818 30.839 43.2133 30.6883 43.15L30.0576 42.8459L31.4983 40.459C33.7764 37.3048 37.8862 33.7904 41.812 33.1584Z" fill="#FEFEFE"/>
<path d="M28.5808 25.4818L28.5447 25.5593C27.9031 25.4345 27.3113 25.1837 26.7239 24.9016C25.8717 24.4922 25.1307 24.0774 24.5375 23.3262C23.8232 22.4218 23.3745 21.3333 23.5223 20.1679C23.6124 19.4567 23.981 18.8834 24.5415 18.4549C25.0936 18.033 25.7504 17.6602 26.4678 17.779C26.6309 17.8059 26.8442 17.8609 26.9466 17.9978C26.7084 18.1256 26.4454 18.195 26.2061 18.3242C25.8835 18.4981 25.6338 18.7248 25.3732 18.9767L31.0256 20.4968C30.8286 20.6231 30.5911 20.8152 30.3667 20.879L30.2904 20.8988L24.8253 19.8613C24.4583 20.696 24.2051 21.4767 24.5602 22.3668C25.1326 23.8018 27.0566 24.8825 28.4227 25.4247L28.5808 25.4818Z" fill="#FEFEFE"/>
<path d="M51.0958 12.4839L50.4375 12.0985C51.2207 10.7438 52.3207 9.52489 53.2736 8.28424L58.8175 1.02539L59.3677 1.80943L57.3791 4.39347L54.297 8.42767L51.9631 11.4081C51.677 11.7602 51.4071 12.1559 51.0958 12.4839Z" fill="#FEFEFE"/>
<path d="M30.4151 10.3908L30.5228 10.3892C30.567 10.5039 30.7183 10.9892 30.6947 11.0876C30.6773 11.1597 30.4461 11.3721 30.3872 11.4357L29.0761 12.8011C28.891 12.9768 28.2957 13.4007 28.2449 13.6032C28.3265 13.7187 28.3711 13.7815 28.4994 13.8498C28.7679 13.7027 29.002 13.4551 29.2269 13.2479C29.7887 12.73 30.3113 12.184 30.8128 11.6079L30.985 13.3695C30.9965 13.5048 31.0613 13.7877 31.0332 13.9117C31.0233 13.9551 30.9036 14.0856 30.874 14.1251L30.3913 14.7702C30.0018 15.2865 29.4865 15.9786 28.9339 16.3174C28.4108 16.6382 27.6756 16.8416 27.0737 16.9252C26.7171 16.5238 26.3975 16.1107 26.1172 15.6522L27.4416 15.3207C27.7814 15.2306 28.2789 15.1183 28.5578 14.9022C28.6518 14.8294 28.6664 14.8219 28.6849 14.7015C28.5123 14.6509 28.3309 14.7335 28.1618 14.7761L27.0525 15.0215C26.6376 15.0963 26.2253 15.1444 25.8053 15.1792L25.1672 14.2536C26.2166 13.8943 27.2666 13.7287 28.2682 13.2211L24.9866 13.7527C24.7344 13.1927 24.5695 12.6413 24.4678 12.0357C25.16 11.9397 25.8648 11.7375 26.5429 11.5658C27.8555 11.2336 29.1467 10.8674 30.4151 10.3908Z" fill="#FEFEFE"/>
<path d="M59.3677 1.80933C59.9077 2.83453 60.0028 4.43808 59.8311 5.57594C59.4473 6.13948 58.9523 6.64514 58.507 7.16273L56.1772 9.8768L53.6784 12.8832C53.2624 13.3885 52.8741 13.924 52.4281 14.4026C52.1401 13.7343 51.7486 12.8822 51.0957 12.4838C51.407 12.1558 51.6769 11.7601 51.963 11.408L54.2968 8.42754L57.379 4.39334L59.3677 1.80933Z" fill="#FBCA57"/>
<path d="M33.6185 51.3398L32.6109 54.0727L31.6802 54.0922C32.17 52.5933 32.6825 51.0263 33.3272 49.5886C33.6198 48.9363 33.9888 48.3207 34.314 47.6843C34.5381 47.594 34.7737 47.5472 34.9987 47.4542C35.7651 47.1374 36.4691 46.7666 37.1758 46.334C38.6273 48.4331 40.2942 50.2443 42.1471 51.9928L43.5039 53.2385C43.7709 53.4736 44.07 53.6983 44.3133 53.9564L43.295 53.9507C43.2557 53.9504 43.0365 53.9647 43.0099 53.949C42.8336 53.8444 42.6361 53.5851 42.4724 53.444L40.0858 51.3504L33.6185 51.3398Z" fill="#FEFEFE"/>
<path d="M34.7412 48.9272C34.8199 48.802 34.9121 48.6408 35.0342 48.553C35.2613 48.3897 35.5893 48.3143 35.8432 48.1906C36.2012 48.0164 36.5291 47.7574 36.8372 47.5071L37.9667 48.9652L34.7412 48.9272Z" fill="#FBCA57"/>
<path d="M34.7408 48.9272L37.9663 48.9652L40.0855 51.3504L33.6182 51.3398L34.7408 48.9272Z" fill="#EC7A3B"/>
<path d="M44.6567 17.0071C45.248 17.587 45.6246 18.2251 45.9003 19.0032C45.0224 19.7833 44.0362 20.4201 43.0866 21.1074L37.7286 24.7955C37.5303 24.9194 37.1527 25.2195 36.942 25.2701C36.7956 25.3052 36.5515 25.2754 36.3975 25.2769L35.1524 25.2763L29.3092 25.2061L29.2611 25.1775C29.22 23.5971 29.8701 22.4141 30.792 21.1715L33.2371 21.5481C33.6502 21.6024 34.0699 21.6773 34.4866 21.6794L33.932 22.9936C34.2407 22.6565 34.4571 22.2001 34.771 21.8902C36.2056 21.571 37.4615 20.9162 38.7663 20.2586L42.84 18.0737C43.447 17.7284 44.0272 17.3066 44.6567 17.0071Z" fill="#F14749"/>
<path d="M24.2862 25.7832C25.742 28.3565 27.126 30.9353 28.912 33.3042C29.422 33.9806 29.9473 34.6548 30.5166 35.2824L31.532 36.3569C31.6898 36.5227 31.894 36.6963 32.0056 36.8938C31.2147 37.7228 30.481 38.5632 29.8294 39.5082L29.1542 40.5438C29.035 40.7341 28.9217 40.9609 28.7701 41.1246C28.1845 41.0251 27.562 40.9258 27.0345 41.2815L26.8905 41.3892C26.2793 42.0182 26.0679 42.7131 25.829 43.5324L25.2716 45.852L25.1524 37.1182C25.1005 36.7317 25.1246 36.3177 25.1212 35.9273L25.1028 33.8561C25.0998 33.5759 25.1603 33.0841 25.0304 32.8354L24.3655 49.1769L23.3563 49.4104L23.2055 37.4523L23.1651 33.7391C23.1569 32.9057 23.1726 32.0686 23.0731 31.2399C22.9957 31.8117 23.0078 32.39 22.991 32.9657L22.9319 36.5573L22.804 49.4966L21.3635 49.8228L21.1268 30.6419C20.8524 31.052 20.7921 48.1129 20.7874 49.9472L19.4026 50.3676L19.1118 32.0298C18.9406 33.6314 18.9698 35.2609 18.9355 36.8705L18.8183 46.1371L18.8001 49.1048C18.7997 49.5702 18.8558 50.121 18.7822 50.5756L18.1507 50.8681C17.783 50.1604 17.5121 49.3876 17.2619 48.6314C16.2864 45.6827 15.9681 42.5138 16.3668 39.4307C16.8846 35.4258 18.4659 31.6881 21.1501 28.6496C22.09 27.5854 23.1634 26.649 24.2862 25.7832Z" fill="url(#paint0_linear_19_1939)"/>
<defs>
<linearGradient id="paint0_linear_19_1939" x1="31.9678" y1="37.0374" x2="15.665" y2="38.9912" gradientUnits="userSpaceOnUse">
<stop stop-color="#FE9F30"/>
<stop offset="1" stop-color="#E05C51"/>
</linearGradient>
</defs>
</svg>
