<svg width="40" height="40" viewBox="0 0 40 40" fill="none" xmlns="http://www.w3.org/2000/svg">
<circle cx="20" cy="20" r="20" fill="white"/>
<circle cx="20" cy="20" r="19.5" stroke="#0B0B0B" stroke-opacity="0.1"/>
<g clip-path="url(#clip0_13_2316)">
<path d="M26.2501 20.4767L20.0001 26.6667L13.7501 20.4767C13.3378 20.0755 13.0131 19.5933 12.7964 19.0605C12.5796 18.5277 12.4756 17.9558 12.4907 17.3808C12.5058 16.8058 12.6399 16.2401 12.8844 15.7194C13.1289 15.1988 13.4785 14.7344 13.9113 14.3555C14.3441 13.9766 14.8507 13.6914 15.3991 13.5179C15.9475 13.3444 16.5259 13.2863 17.0979 13.3473C17.6699 13.4083 18.223 13.5871 18.7225 13.8724C19.222 14.1577 19.657 14.5433 20.0001 15.005C20.3447 14.5467 20.7802 14.1644 21.2793 13.8822C21.7785 13.5999 22.3305 13.4237 22.9009 13.3646C23.4712 13.3055 24.0477 13.3647 24.5941 13.5387C25.1405 13.7126 25.6451 13.9974 26.0764 14.3753C26.5077 14.7532 26.8563 15.2161 27.1004 15.7349C27.3446 16.2537 27.479 16.8174 27.4953 17.3906C27.5117 17.9638 27.4095 18.5342 27.1952 19.066C26.9809 19.5979 26.6592 20.0798 26.2501 20.4817" stroke="#3A3A3A" stroke-width="1.5" stroke-linecap="round" stroke-linejoin="round"/>
</g>
<defs>
<clipPath id="clip0_13_2316">
<rect width="20" height="20" fill="white" transform="translate(10 10)"/>
</clipPath>
</defs>
</svg>
